<?xml version="1.0" encoding="UTF-8"?>
<svg id="Layer_1" data-name="Layer 1" xmlns="http://www.w3.org/2000/svg" viewBox="0 0 68.41 66.41">
  <defs>
    <style>
      .cls-1 {
        fill: #3d3d3d;
      }

      .cls-1, .cls-2 {
        fill-rule: evenodd;
      }

      .cls-3, .cls-2 {
        fill: #fff;
      }
    </style>
  </defs>
  <path class="cls-1" d="M52.04,12.7c-1.04,1.04-1.87,2.29-3.12,3.33-1.04-1.25-2.08-2.29-3.12-3.12,1.25-.62,7.91-1.87,6.25,0v-.21ZM24.36,40.59c-1.67,12.07,1.04,23.52,3.96,23.73,2.71,0,1.46-5.2,3.54-5.2,3.12,0,3.54,7.29,6.25,7.29,1.87,0,1.67-4.79,3.54-6.66,1.46-1.46,6.04-1.67,9.58,1.25,2.71,2.08,6.25,5.41,7.91,5.41,2.71,0-.62-5.2-4.79-17.49,6.87-1.25,11.66-3.96,13.74-12.7,1.25-5.62-1.04-10.41-6.04-11.66-2.5-.62-4.79.21-4.79,2.91,0,3.12,6.87,2.91,6.45,8.95-.83,13.32-19.99,8.54-28.52,5.41-1.87-.62-3.12-1.67,0-1.67,3.75,0,9.99-.62,12.91-2.91,5.2-4.16,4.79-12.49,1.87-19.36,3.12-3.75,4.58-5.62,6.66-9.16-5.83-.62-10.83,0-15.2,2.08h-.42c-6.04-1.87-13.32-3.12-19.57-2.08v-1.25c.21-2.71.21-5.2.21-7.49-6.04,3.54-12.28,11.66-14.99,18.32-1.04,2.5-1.67,5.41-2.08,8.33-2.08,12.07,19.57,13.32,19.36,14.57l.42-.62Z"/>
  <path class="cls-2" d="M12.7,27.06c1.25,0,2.29.62,2.08,1.04,0,.42-.83.42-1.46.83-.62.42-.62,1.04-.83,1.04-.62,0-1.67-1.67-1.46-2.29,0-.62.42-.83,1.67-.62Z"/>
  <path class="cls-2" d="M11.87,16.65c-1.87-.62-3.75,2.29-3.96,5.2,0,2.08,2.71,3.33,4.79,3.75,1.04-3.96,1.04-8.33-.83-8.95Z"/>
  <path class="cls-2" d="M27.06,17.49c3.54,0,4.58,5.2,3.12,8.54-1.04,2.5-7.49,1.67-11.24,1.04.62-7.08,4.58-9.78,8.12-9.58Z"/>
  <path class="cls-3" d="M10.2,27.27s.21,0,.21.42c0,0,0,.21-.42.21-1.25,0-3.33-.42-5.41-.42-1.46,0-3.12,0-4.16.21,0,0-.21,0-.42-.21,0,0,0-.21.21-.42,1.25-.21,2.91-.42,4.37-.21,2.08,0,4.37,0,5.62.42ZM10.2,29.35s.21,0,.21.21c0,0,0,.21-.21.21-1.25,0-3.12.21-4.79.62-1.25.21-2.5.62-3.54,1.25h-.42v-.42c1.04-.62,2.29-1.04,3.75-1.25,1.87-.42,3.75-.62,5-.83v.21ZM9.78,25.81v.42h-.42c-1.04-.62-2.71-1.25-4.37-1.87-1.46-.42-2.91-.83-4.37-1.04,0,0-.21,0-.21-.42,0,0,0-.21.42-.21,1.46,0,3.12.62,4.58,1.04,1.67.62,3.33,1.25,4.37,1.87v.21Z"/>
  <path class="cls-3" d="M15.37,30.09s-.18-.1,0-.47c0,0,.1-.18.47,0,1.11.58,2.76,1.91,4.61,2.87,1.29.67,2.77,1.44,3.79,1.74,0,0,.18.1.27.38,0,0-.1.18-.38.27-1.2-.39-2.78-.98-3.97-1.84-1.85-.96-3.88-2.02-4.79-2.97ZM16.33,28.24s-.18-.1-.09-.28c0,0,.1-.18.28-.09,1.11.58,2.87,1.26,4.54,1.66,1.2.39,2.5.6,3.72.53l.37.19-.19.37c-1.21.07-2.51-.13-3.9-.62-1.85-.5-3.61-1.18-4.82-1.57l.1-.18ZM15.07,31.57l.19-.37.37.19c.63,1.03,1.82,2.36,3.01,3.68,1.1,1.04,2.2,2.08,3.4,2.94,0,0,.18.1,0,.47,0,0-.1.18-.47,0-1.29-.67-2.48-2-3.58-3.04-1.19-1.32-2.38-2.65-3.01-3.68l.1-.18Z"/>
  <path class="cls-2" d="M40.39,42.82c-1.87-.46-3.54-1.15-5-1.84,2.08,2.77,3.33,8.76,4.16,8.99.42,0,1.67-4.15,1.04-7.14h-.21ZM46.63,44.2c-1.46-.23-2.91-.69-4.37-.92,1.67,1.15,1.67,5.99,2.5,5.99s1.67-3.46,1.67-4.61,0-.23,0-.46h.21Z"/>
  <path class="cls-2" d="M27.9,7.91c-2.08,0-3.96,0-6.04.42-3.54,2.08-6.87,5.62-4.79,5.41.42,0,4.79-2.08,7.7-3.96,1.04-.62,2.29-1.25,3.12-1.87ZM39.14,9.58c-2.29-.62-4.79-1.25-7.29-1.46-4.79,2.5-8.95,7.08-6.25,7.08.83,0,4.37-2.08,7.7-3.54,1.67-.83,3.96-1.46,5.83-2.08Z"/>
</svg>